<?xml version="1.0" ?><!DOCTYPE svg  PUBLIC '-//W3C//DTD SVG 1.1//EN'  'http://www.w3.org/Graphics/SVG/1.1/DTD/svg11.dtd'><svg enable-background="new 0 0 128 128" height="128px" id="Layer_1" version="1.1" viewBox="0 0 128 128" width="128px" xml:space="preserve" xmlns="http://www.w3.org/2000/svg" xmlns:xlink="http://www.w3.org/1999/xlink"><g><g><g><g><g><g><path d="M87,55H72.4l11.8-21.2c1.4-1.2,2.9-12.2,2.3-15.5c-0.3-3.2-8.6-14.5-11.2,2.1L46.9,55.8        c-0.8,0.4-1.6,0.8-2.2,1.4l-0.9,0.5l0.2,0c-1.6,1.6-2.6,4.2-2.6,6.2H32" fill="#FFFFFF"/><path d="M41.5,66H32c-1.1,0-2-0.9-2-2s0.9-2,2-2h7.7c0.4-1.7,1.2-3.4,2.2-4.8c0.1-0.5,0.4-0.9,0.9-1.2l0.7-0.5        c0.7-0.5,1.4-1,2.1-1.4l27.8-34.6c1.1-6.7,3.5-10.1,7-10c4.1,0.1,7.7,5.7,8,8.5c0.5,3.1-0.5,14-2.6,16.9L75.8,53H87        c1.1,0,2,0.9,2,2s-0.9,2-2,2H72.4c-0.7,0-1.4-0.4-1.7-1s-0.4-1.4,0-2l11.8-21.2c0.1-0.2,0.2-0.3,0.3-0.4        c0.9-1.5,2.3-10.8,1.8-13.8c0,0,0-0.1,0-0.1c-0.1-1.2-2.6-4.8-4.2-4.9c0,0,0,0,0,0c-0.7,0-2.1,1.5-3,7.1        c-0.1,0.3-0.2,0.7-0.4,0.9L48.5,57.1c-0.2,0.3-0.5,0.5-0.8,0.6c-0.6,0.3-1.2,0.6-1.7,1.1c-0.1,0.1-0.1,0.1-0.2,0.2L45.6,59        c-0.1,0.1-0.1,0.2-0.2,0.2c-1.1,1.2-2,3.2-2,4.8C43.4,65.1,42.5,66,41.5,66z" fill="#37474F"/></g><g><path d="M32,107h12c0,5,5.3,9,10.3,9H87" fill="#FFFFFF"/><path d="M87,118H54.2c-5.1,0-10.8-3.7-12-9H32c-1.1,0-2-0.9-2-2s0.9-2,2-2h12c1.1,0,2,0.9,2,2        c0,3.9,4.5,7,8.3,7H87c1.1,0,2,0.9,2,2S88.1,118,87,118z" fill="#37474F"/></g><g><path d="M87,116h20.8c3.8,0,6.9-2.7,6.9-6.5c0-3.8-3.1-6.5-6.9-6.5H98" fill="#FFFFFF"/><path d="M107.8,118H87c-1.1,0-2-0.9-2-2s0.9-2,2-2h20.8c2.8,0,4.9-1.9,4.9-4.5c0-2.6-2.1-4.5-4.9-4.5H98        c-1.1,0-2-0.9-2-2s0.9-2,2-2h9.8c5.1,0,8.9,3.7,8.9,8.5C116.6,114.3,112.8,118,107.8,118z" fill="#37474F"/></g><g><path d="M98,101h16.1c3.8,0,6.9-3.2,6.9-7s-3.1-7-6.9-7H98" fill="#FFFFFF"/><path d="M114.1,103H98c-1.1,0-2-0.9-2-2s0.9-2,2-2h16.1c2.7,0,4.9-2.3,4.9-5s-2.2-5-4.9-5H98c-1.1,0-2-0.9-2-2        s0.9-2,2-2h16.1c4.9,0,8.9,4,8.9,9S119,103,114.1,103z" fill="#37474F"/></g><g><path d="M98,85h19.1c3.8,0,6.9-3.2,6.9-7c0-3.8-3.1-7-6.9-7H97" fill="#FFFFFF"/><path d="M117.1,87H98c-1.1,0-2-0.9-2-2s0.9-2,2-2h19.1c2.7,0,4.9-2.3,4.9-5c0-2.7-2.2-5-4.9-5H97        c-1.1,0-2-0.9-2-2s0.9-2,2-2h20.1c4.9,0,8.9,4,8.9,9C126,83,122,87,117.1,87z" fill="#37474F"/></g><g><path d="M98,69h16.1c3.8,0,6.9-3.2,6.9-7s-3.1-7-6.9-7H87" fill="#FFFFFF"/><path d="M114.1,71H98c-1.1,0-2-0.9-2-2s0.9-2,2-2h16.1c2.7,0,4.9-2.3,4.9-5s-2.2-5-4.9-5H87c-1.1,0-2-0.9-2-2        s0.9-2,2-2h27.1c4.9,0,8.9,4,8.9,9S119,71,114.1,71z" fill="#37474F"/></g></g></g></g></g><g><path d="M4,55h16.8C27.1,55,32,60.6,32,66.9V105c0,6.3-4.9,11-11.2,11H4" fill="#FFAB00"/><path d="M20.8,118H4c-1.1,0-2-0.9-2-2s0.9-2,2-2h16.8c5.3,0,9.2-3.9,9.2-9V66.9c0-5.4-4.2-9.9-9.2-9.9H4    c-1.1,0-2-0.9-2-2s0.9-2,2-2h16.8C28.1,53,34,59.2,34,66.9V105C34,112.3,28.2,118,20.8,118z" fill="#37474F"/></g></g></svg>