<?xml version="1.0" ?><svg enable-background="new 0 0 32 32" version="1.1" viewBox="0 0 32 32" xml:space="preserve" xmlns="http://www.w3.org/2000/svg" xmlns:xlink="http://www.w3.org/1999/xlink"><g id="Style_2_copy_3"><g><g><path d="M16,0C7.163,0,0,7.163,0,16c0,8.836,7.163,16,16,16s16-7.164,16-16C32,7.163,24.837,0,16,0z" fill="#333333"/></g></g><path d="M16,5.534c-3.73,0-6.754,3.024-6.754,6.754c0,0.625,0.085,1.231,0.244,1.806   c0.064,0.23,0.139,0.456,0.226,0.675l0.205,0.465L16,26.466l6.087-11.249l0.185-0.419c0.092-0.229,0.171-0.464,0.238-0.705   c0.159-0.575,0.244-1.18,0.244-1.806C22.754,8.558,19.73,5.534,16,5.534z M16,15.214c-1.65,0-2.988-1.338-2.988-2.988   c0-1.65,1.338-2.988,2.988-2.988c1.65,0,2.988,1.338,2.988,2.988C18.988,13.877,17.65,15.214,16,15.214z" fill="#FFFFFF"/></g></svg>