<?xml version="1.0" ?><svg enable-background="new 0 0 32 32" id="Layer_1" version="1.1" viewBox="0 0 32 32" xml:space="preserve" xmlns="http://www.w3.org/2000/svg" xmlns:xlink="http://www.w3.org/1999/xlink"><g id="Style_2_copy_3"><g><g><path d="M16,0C7.163,0,0,7.163,0,16c0,8.836,7.163,16,16,16s16-7.164,16-16C32,7.163,24.837,0,16,0z" fill="#333333"/></g></g></g><g id="style_4_1_"><g><rect fill="#FFFFFF" height="5.88" transform="matrix(0.7879 -0.6158 0.6158 0.7879 -7.8032 18.2727)" width="2.4" x="21.425" y="17.524"/><path d="M22.513,24.284l-3.621-4.633c0,0-2.361-0.553-4.043-2.704c-1.681-2.151-1.647-4.576-1.647-4.576    L9.581,7.738c0,0-3.431,4.915,1.951,11.801S22.513,24.284,22.513,24.284z" fill="#FFFFFF"/><rect fill="#FFFFFF" height="5.88" transform="matrix(0.7879 -0.6158 0.6158 0.7879 -2.4429 10.012)" width="2.4" x="12.113" y="5.612"/></g></g></svg>